/* XPM */
static char * collapse_xpm[] = {
"16 16 2 1",
" 	c None",
".	c #C0C0C0",
"                ",
"                ",
"      .         ",
"      ..        ",
"      ...       ",
"      ....      ",
"      .....     ",
"      ......    ",
"      ......    ",
"      .....     ",
"      ....      ",
"      ...       ",
"      ..        ",
"      .         ",
"                ",
"                "};
