/* XPM */
static char * desktop_xpm[] = {
"20 20 2 1",
" 	c None",
".	c #C0C0C0",
"                    ",
"                    ",
"                    ",
"                    ",
"                    ",
"                    ",
"                    ",
"                    ",
"                    ",
"                    ",
"                    ",
"                    ",
"                    ",
"                    ",
"                    ",
"                    ",
" ..........         ",
" ..........         ",
"                    ",
"                    "};
