/* XPM */
static char * start_xpm[] = {
"52 20 125 2",
"  	c None",
". 	c #020204",
"+ 	c #050506",
"@ 	c #2A2A2C",
"# 	c #0D0D0F",
"$ 	c #050507",
"% 	c #070709",
"& 	c #1E1E20",
"* 	c #A1A1A2",
"= 	c #424243",
"- 	c #7D7D7D",
"; 	c #BDBDBD",
"> 	c #141416",
", 	c #020205",
"' 	c #76746D",
") 	c #826E14",
"! 	c #A2933D",
"~ 	c #6F6C5D",
"{ 	c #1B1B1D",
"] 	c #010104",
"^ 	c #B2810C",
"/ 	c #ECC410",
"( 	c #F5D834",
"_ 	c #D1A918",
": 	c #1D1607",
"< 	c #FFFFFF",
"[ 	c #8B744A",
"} 	c #BE9606",
"| 	c #C29311",
"1 	c #AC9562",
"2 	c #414140",
"3 	c #2C2C2E",
"4 	c #0C0C0E",
"5 	c #D0D0CE",
"6 	c #B4AFA6",
"7 	c #CCCAC5",
"8 	c #F8F8F6",
"9 	c #B4B4B2",
"0 	c #505050",
"a 	c #FDFDFB",
"b 	c #FBFBF9",
"c 	c #F3F3F1",
"d 	c #07070A",
"e 	c #020203",
"f 	c #0D0D0E",
"g 	c #A8A8A6",
"h 	c #FCFCFA",
"i 	c #EEEEEC",
"j 	c #D8D8D7",
"k 	c #6D6D6D",
"l 	c #121214",
"m 	c #040406",
"n 	c #3D3D3E",
"o 	c #F0F0EE",
"p 	c #262628",
"q 	c #1B1B1C",
"r 	c #202022",
"s 	c #A6A6A4",
"t 	c #555557",
"u 	c #111113",
"v 	c #2A2A2B",
"w 	c #E3E3E1",
"x 	c #FAFAF8",
"y 	c #626262",
"z 	c #131314",
"A 	c #2A1D05",
"B 	c #483D21",
"C 	c #F9F9F7",
"D 	c #4D4D50",
"E 	c #151516",
"F 	c #08080A",
"G 	c #D8A002",
"H 	c #F2B90B",
"I 	c #514731",
"J 	c #EBEBE9",
"K 	c #CAA64E",
"L 	c #7A5C0D",
"M 	c #453611",
"N 	c #CB9305",
"O 	c #F4BB0C",
"P 	c #F5BD0D",
"Q 	c #D09E0B",
"R 	c #2B2A29",
"S 	c #AF882F",
"T 	c #CF9B19",
"U 	c #7F5D0F",
"V 	c #E9B620",
"W 	c #CD9612",
"X 	c #C48D06",
"Y 	c #F4BD0C",
"Z 	c #856A1D",
"` 	c #B0B0AE",
" .	c #DCDCDA",
"..	c #8D6710",
"+.	c #F5BF22",
"@.	c #F5BE21",
"#.	c #F5C022",
"$.	c #F4BF22",
"%.	c #C48D0D",
"&.	c #C59104",
"*.	c #E8B009",
"=.	c #A8A498",
"-.	c #F7F7F5",
";.	c #ADADAB",
">.	c #9C7011",
",.	c #F1BA1F",
"'.	c #DCA318",
").	c #9F6F07",
"!.	c #A27205",
"~.	c #CF9701",
"{.	c #E7AC0C",
"].	c #EEB50A",
"^.	c #EBAF0D",
"/.	c #382804",
"(.	c #060608",
"_.	c #9B6C0D",
":.	c #E9B01C",
"<.	c #DEA117",
"[.	c #906305",
"}.	c #664506",
"|.	c #8D6403",
"1.	c #845D02",
"2.	c #3B2904",
"3.	c #7B5304",
"4.	c #664406",
"                    . . +                                                                               ",
"                  . . . @ #                                                                             ",
"                  . $ % & . .                                                                           ",
"                  * = - ; > ,                                                                           ",
"                  ' ) ! ~ { ]                                                                           ",
"                  ^ / ( _ : .                 < < < <                                                   ",
"                  [ } | 1 2 3               < <     < <     < <                           < <           ",
"                4 5 6 7 8 9 . ]             < <             < <                           < <           ",
"              , 0 a b a a c d . e           < <             < < <     < < < <     < < <   < < <         ",
"              f g h c h i j k l .             < < < <       < <             < <   < <     < <           ",
"            m n h a a a a a o p q ]                 < <     < <       < < < < <   < <     < <           ",
"            r s a h b a a a a t u .                 < <     < <     < <     < <   < <     < <           ",
"            v w a x b a a a a y z .         < <     < <     < <     < <     < <   < <     < <           ",
"          A B i a C h a a a a D E F           < < < <         < <     < < < < <   < <       < <         ",
"          G H I J b h a a a K L . M                                                                     ",
"      N O P P Q R w a a a c S T U V W                                                                   ",
"      X P P P Y Z ` a a a  ...+.@.#.$.%.                                                                ",
"      &.P P P P *.=.C -.;.& >.#.#.,.'.).                                                                ",
"      !.~.{.].P ^./.(.+ . . _.:.<.[.                                                                    ",
"            }.|.1.          2.3.4.                                                                      "};
