/* XPM */
static char * start_xpm[] = {
"52 20 2 1",
" 	c None",
".	c #FFFFFF",
"                                                    ",
"                                                    ",
"                                                    ",
"                                                    ",
"        .                                           ",
" .     ..              ....                         ",
" . . ....             ..  ..  ..             ..     ",
"   ......             ..      ..             ..     ",
" .     ..             ..      ...  ....  ... ...    ",
" . . ....              ....   ..      .. ..  ..     ",
"   ......                 ..  ..   ..... ..  ..     ",
" .     ..                 ..  ..  ..  .. ..  ..     ",
" . . ....             ..  ..  ..  ..  .. ..  ..     ",
"   ...... ....         ....    ..  ..... ..   ..    ",
" .     .........                                    ",
" . . .....    ...                                   ",
"   .....        .                                   ",
"                                                    ",
"                                                    ",
"                                                    "};
